<?xml version="1.0" encoding="UTF-8" standalone="no"?>
<!-- Created with Inkscape (http://www.inkscape.org/) -->

<svg
   width="206.44418mm"
   height="210.27495mm"
   viewBox="0 0 206.44418 210.27495"
   version="1.1"
   id="svg1"
   xml:space="preserve"
   inkscape:version="1.4.2 (f4327f4, 2025-05-13)"
   sodipodi:docname="logo.svg"
   xmlns:inkscape="http://www.inkscape.org/namespaces/inkscape"
   xmlns:sodipodi="http://sodipodi.sourceforge.net/DTD/sodipodi-0.dtd"
   xmlns="http://www.w3.org/2000/svg"
   xmlns:svg="http://www.w3.org/2000/svg"><sodipodi:namedview
     id="namedview1"
     pagecolor="#ffffff"
     bordercolor="#000000"
     borderopacity="0.25"
     inkscape:showpageshadow="2"
     inkscape:pageopacity="0.0"
     inkscape:pagecheckerboard="0"
     inkscape:deskcolor="#d1d1d1"
     inkscape:document-units="mm"
     inkscape:zoom="0.73512619"
     inkscape:cx="305.38975"
     inkscape:cy="535.28225"
     inkscape:window-width="2560"
     inkscape:window-height="1369"
     inkscape:window-x="-8"
     inkscape:window-y="-8"
     inkscape:window-maximized="1"
     inkscape:current-layer="layer1" /><defs
     id="defs1" /><g
     inkscape:label="Laag 1"
     inkscape:groupmode="layer"
     id="layer1"
     transform="translate(-1.3162134,-2.2573985)"><path
       style="fill:#000000;stroke-width:0.437122"
       d="m 103.45163,211.34081 c -0.59631,-0.65651 -1.45555,-1.58397 -1.90942,-2.06105 -0.81344,-0.85506 -3.261928,-3.50025 -4.170881,-4.50598 -0.256427,-0.28372 -0.830548,-0.90977 -1.275817,-1.3912 -0.445274,-0.48142 -1.377207,-1.49835 -2.070968,-2.25984 -0.69376,-0.76149 -1.656585,-1.80413 -2.139616,-2.31698 -0.483033,-0.51286 -1.452953,-1.55376 -2.155385,-2.31311 -0.702432,-0.75934 -1.952708,-2.10926 -2.778387,-2.99981 -1.713389,-1.84797 -5.946788,-6.48169 -6.868125,-7.51756 -0.339461,-0.38167 -0.910489,-1.00621 -1.268959,-1.38786 -0.358471,-0.38167 -1.058818,-1.16234 -1.556332,-1.73483 l -0.904566,-1.04091 0.329628,-0.0645 c 0.181297,-0.0354 1.032233,-0.0769 1.890975,-0.0919 0.858738,-0.0151 1.795541,-0.0509 2.081792,-0.0794 0.51071,-0.0511 3.503613,-0.21451 6.361024,-0.34743 0.795128,-0.0371 1.607307,-0.0886 1.804852,-0.11451 l 0.359161,-0.0473 0.391485,0.48824 c 0.215318,0.26854 1.224701,1.41638 2.243076,2.55075 1.018374,1.13438 2.18472,2.43549 2.591881,2.89137 0.40716,0.45589 1.402316,1.55751 2.211449,2.44806 0.809139,0.89053 2.765021,3.05039 4.346403,4.79967 1.5814,1.74929 3.0138,3.33147 3.18312,3.51596 l 0.30786,0.33543 0.73513,-0.79805 c 0.40432,-0.43893 1.20354,-1.29357 1.77605,-1.8992 1.69319,-1.79113 4.22954,-4.50182 5.08394,-5.43338 0.43756,-0.47707 1.13812,-1.23587 1.55679,-1.68623 0.41867,-0.45034 0.9671,-1.04886 1.21873,-1.33003 0.25163,-0.28116 1.00875,-1.10973 1.68246,-1.84123 0.67372,-0.73153 1.48272,-1.62237 1.79776,-1.97966 0.31505,-0.3573 1.21813,-1.34615 2.00687,-2.19745 4.93225,-5.32356 6.13733,-6.64963 8.27733,-9.10834 2.19784,-2.52517 5.58081,-6.70381 6.71162,-8.29024 l 0.8096,-1.13576 3.009,-3.01442 c 1.65496,-1.65794 3.55459,-3.63388 4.22142,-4.39101 0.66681,-0.75714 1.46349,-1.65104 1.77039,-1.98646 0.3069,-0.33542 0.77531,-0.89304 1.0409,-1.23915 0.26559,-0.34612 1.00432,-1.2738 1.64164,-2.06148 1.61652,-1.99793 2.59475,-3.31938 4.58902,-6.19909 2.02193,-2.91965 4.95175,-7.76216 6.15535,-10.17376 0.41852,-0.8386 0.80845,-1.64529 0.86647,-1.79267 0.058,-0.14736 0.23956,-0.5672 0.4034,-0.93295 0.16385,-0.36576 0.27598,-0.66502 0.24918,-0.66502 -0.0462,0 -2.74102,3.7143 -3.85983,5.32012 -1.18494,1.70074 -6.16136,8.28546 -7.77918,10.2933 -2.08384,2.58621 -2.53513,3.1221 -4.32757,5.13861 -5.62238,6.32522 -11.90282,11.92967 -17.69523,15.79058 -1.37067,0.91362 -1.93256,1.25613 -4.54066,2.7678 -0.91078,0.52788 -3.54383,1.85684 -4.97524,2.51112 -4.45865,2.03796 -9.78544,3.72442 -14.90301,4.71828 -1.54003,0.29908 -5.735454,0.88937 -7.848834,1.10431 -0.636105,0.0648 -1.911201,0.19505 -2.833548,0.28964 -2.721955,0.27915 -2.781002,0.28399 -5.641332,0.46222 -3.765325,0.23464 -11.486845,0.52871 -18.414913,0.70132 -2.389743,0.0596 -3.763524,0.10592 -6.765818,0.22855 -0.763323,0.0311 -2.116489,0.0858 -3.007032,0.12132 -0.890543,0.0354 -3.076426,0.13759 -4.857511,0.22675 -1.781086,0.0892 -4.045034,0.19192 -5.030992,0.22837 -0.985962,0.0364 -2.182989,0.0897 -2.660067,0.11819 -0.47708,0.0285 -1.726153,0.0814 -2.775721,0.1177 -1.049569,0.0362 -2.246598,0.089 -2.660067,0.11746 -0.413465,0.0284 -2.000832,0.10602 -3.527478,0.17256 -1.526647,0.0665 -3.634459,0.1707 -4.684027,0.23156 -1.049572,0.0609 -1.97237,0.11122 -2.050663,0.1118 l -0.142357,0.001 0.05672,-0.49153 c 0.0312,-0.27034 0.158426,-1.32426 0.28274,-2.34201 0.124312,-1.01777 0.281655,-2.42299 0.349648,-3.12269 0.068,-0.69971 0.147429,-1.48039 0.176514,-1.73483 0.02911,-0.25444 0.15906,-1.6076 0.288824,-3.00703 0.129765,-1.39942 0.339883,-3.66337 0.466929,-5.03099 0.127045,-1.36763 0.331713,-3.47544 0.45482,-4.68403 0.123111,-1.20859 0.355616,-3.60265 0.516682,-5.32014 0.633878,-6.75912 1.072791,-10.50141 2.095731,-17.86869 0.101572,-0.73152 0.364799,-2.42297 0.584959,-3.75879 1.340574,-8.13403 2.568386,-13.58899 4.789858,-21.28052 0.692191,-2.39662 3.877976,-11.79 4.824627,-14.225572 1.117269,-2.874529 1.522122,-3.910301 2.373324,-6.071889 1.068457,-2.713307 2.009557,-5.019036 2.454687,-6.014065 0.156506,-0.349854 0.619689,-1.442793 1.029289,-2.428756 0.962139,-2.31599 2.790854,-6.518501 3.010412,-6.918144 0.09376,-0.170661 0.47988,-0.986876 0.858042,-1.813809 1.63542,-3.576177 4.421173,-9.206476 6.237386,-12.606398 1.934406,-3.621178 5.008361,-8.933422 6.926664,-11.970292 0.381721,-0.6043 1.022975,-1.619172 1.425012,-2.255276 1.316815,-2.083456 4.144217,-6.277976 5.323111,-7.896968 0.635478,-0.87271 1.528229,-2.107189 1.983889,-2.743291 1.047675,-1.462548 1.791261,-2.459028 2.97746,-3.990101 0.517465,-0.667909 1.3401,-1.734826 1.828081,-2.370925 1.052388,-1.371823 2.558743,-3.240906 5.458169,-6.772463 1.17205,-1.427576 2.343057,-2.854441 2.60224,-3.170803 0.259178,-0.316363 1.095772,-1.305088 1.859095,-2.197165 0.763323,-0.892077 1.498488,-1.752201 1.633694,-1.911378 0.859214,-1.011548 1.83983,-2.148579 1.8954,-2.197724 0.03598,-0.03182 0.866962,-0.994635 1.846664,-2.139618 0.979707,-1.144987 1.812869,-2.107812 1.85148,-2.139617 0.0386,-0.03182 0.507708,-0.5782766 1.04244,-1.2143805 0.534735,-0.6361039 1.651189,-1.9396216 2.480999,-2.8967069 0.82981,-0.9570867 1.91329,-2.2191733 2.40772,-2.8046364 l 0.89897,-1.0644737 h 0.15318 0.15317 l 0.85434,1.0698067 c 0.46989,0.5883951 1.37601,1.6683254 2.0136,2.3998447 0.63759,0.7315179 1.30888,1.5121859 1.49175,1.734825 0.18287,0.2226343 0.60647,0.7170577 0.94131,1.0987222 2.33234,2.6584239 9.08523,10.5451809 11.03598,12.8890039 1.75737,2.111485 4.43287,5.319213 5.49933,6.593299 0.50888,0.607962 1.28938,1.573542 1.73445,2.145734 0.44507,0.572191 1.10918,1.398675 1.47581,1.836626 l 0.66659,0.796283 -0.13102,0.157875 -0.13103,0.157871 h -0.46617 c -0.25639,0 -1.19984,0.07942 -2.09655,0.176483 -3.25099,0.351913 -5.91701,0.647272 -6.25657,0.693138 -0.19082,0.02579 -0.86057,0.105117 -1.48832,0.176304 l -1.14136,0.129432 -0.0881,-0.09614 c -0.0485,-0.05288 -0.28951,-0.360997 -0.53564,-0.684706 -0.24612,-0.323716 -1.07204,-1.316374 -1.83536,-2.205916 -0.76332,-0.889548 -1.90832,-2.234771 -2.54442,-2.989386 -0.63609,-0.75462 -1.34352,-1.583526 -1.57203,-1.842014 -0.22853,-0.258486 -1.06834,-1.250647 -1.86625,-2.2048 -0.79791,-0.954153 -1.98254,-2.359363 -2.63253,-3.122686 -0.64999,-0.763324 -1.53251,-1.804218 -1.96115,-2.313102 -0.42865,-0.508879 -0.87145,-1.001529 -0.984,-1.09477 l -0.20463,-0.169533 -0.30504,0.348682 c -0.16777,0.191773 -0.77344,0.888073 -1.34593,1.54733 -0.5725,0.65926 -1.4083,1.619536 -1.85736,2.133953 -3.532733,4.046984 -8.210225,9.959279 -12.040212,15.218697 -1.692653,2.324389 -5.658453,8.288154 -7.152495,10.755918 -3.41064,5.633475 -7.411813,13.261345 -9.14899,17.441717 -0.811844,1.953633 -2.73888,6.808916 -3.336762,8.40718 -0.827807,2.212889 -3.396511,9.992604 -4.047819,12.259432 -1.388896,4.833951 -2.633458,10.347726 -3.250387,14.400148 l -0.307951,2.02286 -0.0557,3.12269 -0.05571,3.12268 0.250157,1.96615 c 0.903805,7.10359 2.879143,12.82068 6.382317,18.47184 1.490028,2.40366 2.382465,3.60894 4.423056,5.97365 l 1.034522,1.19884 1.679014,1.55155 c 2.903312,2.68288 5.528418,4.57496 9.03734,6.51375 1.822255,1.00685 4.681396,2.25556 6.939303,3.03072 2.602227,0.89334 6.27256,1.72767 9.136737,2.07691 l 1.21438,0.14808 3.23834,0.004 c 3.56971,0.005 4.49556,-0.0497 6.84966,-0.41002 l 1.59317,-0.24385 2.02396,-0.5068 c 3.86309,-0.96731 6.83647,-2.08957 10.2933,-3.88505 l 1.79264,-0.93111 1.56135,-1.04639 c 1.72363,-1.15518 3.29495,-2.32909 3.96119,-2.95936 0.82368,-0.77922 0.63158,-0.46643 -1.53805,2.50432 -1.05384,1.44297 -1.47127,1.96922 -3.28394,4.14013 l -1.14994,1.37719 -2.20406,2.20328 -2.20405,2.20327 -1.44569,1.21278 c -1.59191,1.33546 -4.54583,3.48577 -5.89842,4.29377 -2.90283,1.73408 -7.65443,3.85868 -10.64134,4.75811 -1.9759,0.59499 -3.46361,0.97846 -4.48089,1.155 l -0.906705,0.15735 -0.630736,-0.0447 c -2.140053,-0.15158 -5.568116,-0.70771 -8.032663,-1.30313 -2.731826,-0.66 -6.451243,-2.01281 -9.345821,-3.39925 -4.019821,-1.9254 -7.107844,-3.90946 -11.278397,-7.24641 l -1.806837,-1.44569 -2.091634,-2.0818 -2.091639,-2.08178 -1.23134,-1.48868 c -1.771654,-2.14192 -4.119602,-5.46046 -5.414395,-7.6526 -0.574627,-0.97285 -0.770283,-1.21568 -0.578763,-0.71832 0.325852,0.84625 1.966919,4.10706 2.837516,5.63819 2.579157,4.53597 4.766045,7.96686 8.44092,13.2425 1.840276,2.64189 5.855861,8.00574 7.257662,9.69447 0.624244,0.75201 1.134985,1.41558 1.134985,1.4746 v 0.10731 l -1.590257,0.0146 c -0.87464,0.009 -1.694342,0.0231 -1.821563,0.0334 -0.127224,0.0108 -1.740609,0.0575 -3.585309,0.10494 -1.844695,0.0474 -3.692286,0.11075 -4.105754,0.14092 l -0.751757,0.0547 -1.040895,-1.46128 c -3.303085,-4.63708 -6.541736,-9.66022 -8.305315,-12.88156 -1.235074,-2.25597 -2.625128,-4.99425 -3.434589,-6.76583 -2.126846,-4.65475 -3.18158,-7.43147 -4.349236,-11.44985 -0.788624,-2.71397 -1.49648,-5.55975 -1.611421,-6.47839 l -0.08662,-0.69222 -0.09411,0.2313 c -0.182577,0.44877 -1.330623,6.60661 -1.72499,9.25242 -0.844676,5.66698 -2.458389,20.28272 -3.122105,28.27766 -0.198028,2.38538 -0.40262,4.64933 -0.45465,5.03098 -0.05203,0.38166 -0.0716,0.73289 -0.0435,0.78052 l 0.05113,0.0865 0.542636,-0.0532 c 0.298448,-0.0293 1.479437,-0.0824 2.624424,-0.11815 1.144982,-0.0358 2.550191,-0.0907 3.122685,-0.12209 2.222893,-0.12199 8.543895,-0.39507 10.524607,-0.45471 1.144987,-0.0345 2.810414,-0.0876 3.700962,-0.11802 3.468681,-0.11865 5.30102,-0.17455 7.748885,-0.23645 7.444795,-0.18828 17.853799,-0.92902 22.899697,-1.62962 2.77687,-0.38556 5.713457,-0.94565 8.442817,-1.61028 4.354395,-1.06035 10.731165,-3.61163 14.552755,-5.8224 0.5616,-0.32487 1.04138,-0.59069 1.06618,-0.59069 0.049,0 1.19237,-0.72283 2.65457,-1.6783 0.92053,-0.60152 2.27226,-1.62958 4.34772,-3.30667 0.59843,-0.48357 1.86429,-1.62855 2.81301,-2.54441 l 1.72494,-1.66518 1.94459,-2.18299 c 2.12758,-2.38843 4.11785,-4.88921 5.56222,-6.98898 1.33966,-1.94754 3.71634,-5.77835 4.46277,-7.19323 1.15654,-2.19225 2.54558,-4.05559 4.12384,-5.53197 1.99096,-1.86246 4.4203,-3.09868 6.98555,-3.55476 l 0.99703,-0.17727 1.38786,-0.008 1.38788,-0.008 1.27219,0.30625 1.27221,0.30625 1.04602,0.50771 1.046,0.50769 0.82752,0.76615 0.82752,0.76617 0.31955,0.65313 0.31954,0.65315 0.0462,1.05641 0.0462,1.0564 -0.19101,1.21809 c -0.18828,1.20063 -1.00418,4.8098 -1.44808,6.40561 -0.642,2.30794 -2.10371,6.37471 -3.31951,9.23552 -0.87664,2.06275 -3.27698,6.90988 -4.54329,9.17448 -0.98634,1.76392 -2.75774,4.6453 -3.82142,6.21598 -2.87909,4.25132 -4.55772,6.54691 -6.93487,9.48371 -1.92948,2.38374 -4.90438,5.79146 -7.35139,8.42093 -0.76334,0.82025 -1.64159,1.78526 -1.9517,2.14449 -0.6209,0.71923 -2.50224,2.76101 -3.95646,4.2938 -0.94818,0.99944 -4.39545,4.73758 -5.6486,6.12522 -0.37685,0.41728 -2.1201,2.29403 -3.8739,4.17052 -1.75381,1.87651 -3.47408,3.7241 -3.82284,4.10576 -0.34875,0.38166 -1.07762,1.16322 -1.61971,1.73677 -1.62673,1.7212 -6.48162,6.92921 -7.47183,8.01533 l -0.45559,0.49969 z m 74.2385,-30.748 c -0.66791,-0.0472 -1.96902,-0.11853 -2.89137,-0.15847 -0.92235,-0.04 -2.01529,-0.0979 -2.42876,-0.12869 -0.41347,-0.0309 -1.92276,-0.10721 -3.354,-0.16961 -5.66549,-0.24714 -10.86054,-0.50142 -15.38211,-0.75289 -3.2865,-0.18278 -5.4688,-0.28861 -7.22845,-0.35054 -1.08137,-0.0381 -2.56464,-0.11735 -3.29616,-0.17629 -0.73151,-0.0588 -1.70429,-0.10764 -2.16171,-0.10827 l -0.83168,-0.001 -0.0611,-0.0988 -0.0611,-0.0988 1.00924,-1.14445 c 1.84806,-2.09565 3.22915,-3.82684 5.55707,-6.96573 l 0.88631,-1.19508 1.44569,0.0706 c 5.79135,0.28243 7.68716,0.38142 11.10288,0.57971 0.54069,0.0314 1.63363,0.0859 2.42876,0.12107 0.79512,0.0351 1.80999,0.0875 2.25526,0.11628 0.44527,0.0287 1.57836,0.086 2.51797,0.12718 l 1.70838,0.075 -0.0581,-0.56413 c -0.032,-0.31029 -0.13835,-1.34482 -0.23647,-2.29897 -0.0982,-0.95415 -0.20117,-1.943 -0.22896,-2.19745 -0.0278,-0.25443 -0.18394,-1.86783 -0.347,-3.58531 -0.16304,-1.71748 -0.4524,-4.7621 -0.643,-6.76581 -0.19062,-2.00374 -0.42434,-4.47585 -0.51941,-5.49362 -0.095,-1.01778 -0.20317,-2.16639 -0.24023,-2.5525 l -0.0673,-0.70201 0.61842,-0.55645 c 0.34014,-0.30604 1.24297,-1.05515 2.00629,-1.66466 0.76334,-0.60951 2.06444,-1.68526 2.89138,-2.39055 2.5089,-2.13984 3.5394,-2.97421 3.59928,-2.91432 0.0507,0.0507 0.87247,8.13389 1.71915,16.91021 0.39109,4.05383 1.04145,10.61615 1.33532,13.4738 0.24786,2.41028 0.59027,5.87484 0.86872,8.78978 0.0943,0.98596 0.20338,2.03987 0.24264,2.34202 l 0.0713,0.54936 -0.50644,-0.0171 c -0.27854,-0.01 -1.05291,-0.0558 -1.72081,-0.10301 z m -16.76998,-34.05493 c 0,-0.0312 0.47273,-1.16324 1.0505,-2.5155 1.65895,-3.88268 2.01146,-4.77709 2.58624,-6.56186 0.68105,-2.11481 1.61517,-5.37433 1.97816,-6.90265 0.1535,-0.64634 0.33724,-1.29691 0.4083,-1.44568 0.071,-0.14878 0.44936,-0.54542 0.8407,-0.88141 0.39134,-0.33602 1.17991,-1.02621 1.75241,-1.53379 0.57248,-0.50757 1.43122,-1.24453 1.9083,-1.63768 0.47708,-0.39316 1.49195,-1.26496 2.25527,-1.93733 0.76333,-0.67239 1.57001,-1.37198 1.79266,-1.55468 0.22262,-0.18268 0.84717,-0.73489 1.38786,-1.22711 0.54068,-0.49224 2.076,-1.87386 3.41182,-3.07028 1.33581,-1.1964 2.74164,-2.46511 3.12407,-2.81934 0.38241,-0.35422 1.18734,-1.08641 1.7887,-1.62711 0.60139,-0.54069 1.43558,-1.29533 1.85377,-1.677 2.68445,-2.44997 4.32467,-3.92762 5.03027,-4.53167 0.44528,-0.38121 0.87655,-0.77422 0.95838,-0.87337 l 0.1488,-0.18029 -1.74846,-1.54439 c -0.96167,-0.84942 -2.33332,-2.06485 -3.04815,-2.70095 -0.71483,-0.6361 -3.66413,-3.258148 -6.55401,-5.826769 -2.88989,-2.568622 -5.37889,-4.789163 -5.53113,-4.934537 l -0.27678,-0.264319 0.13989,-1.599969 c 0.16915,-1.934803 0.32274,-3.973669 0.63221,-8.39266 0.079,-1.127962 0.17745,-2.084649 0.21878,-2.125979 l 0.0751,-0.07515 1.30511,1.160483 c 0.71783,0.638262 1.90364,1.69399 2.63516,2.346056 0.73152,0.652067 2.1107,1.875461 3.06487,2.718651 5.15024,4.551316 6.2603,5.5405 7.645,6.81247 1.68609,1.548843 3.69505,3.345867 5.3057,4.745937 0.58541,0.508883 1.87007,1.65387 2.85482,2.544407 0.98474,0.89055 3.15293,2.831189 4.81819,4.312549 l 3.02773,2.6934 v 0.1504 0.15041 l -1.18546,1.02977 c -0.652,0.56638 -1.73193,1.52604 -2.39984,2.13259 -0.66791,0.60654 -1.91698,1.7243 -2.77572,2.48393 -0.85874,0.75962 -2.18588,1.95688 -2.94921,2.66058 -0.76331,0.7037 -2.50682,2.28952 -3.87443,3.52404 -1.36762,1.23453 -2.87741,2.61203 -3.35509,3.06114 -0.47768,0.4491 -1.33641,1.22728 -1.90831,1.72929 -0.57189,0.502 -1.43563,1.28268 -1.91942,1.73482 -0.48379,0.45215 -1.4706,1.34253 -2.19293,1.97864 -0.72231,0.6361 -1.99479,1.78108 -2.82772,2.54441 -1.67424,1.53432 -1.80722,1.65399 -3.85827,3.47266 -2.81005,2.49165 -4.30254,3.74752 -12.7942,10.76575 -2.12324,1.75482 -4.64252,3.74594 -4.73958,3.74594 -0.0331,0 -0.0601,-0.0255 -0.0601,-0.0569 z m -56.47596,-5.92239 c -0.0699,-0.1131 -0.58473,-2.22197 -1.22261,-5.00798 -0.19661,-0.85874 -0.56699,-2.47213 -0.82305,-3.58531 -0.25607,-1.11319 -0.62273,-2.72656 -0.8148,-3.5853 -0.19207,-0.85875 -0.57626,-2.55019 -0.85377,-3.75879 -0.2775,-1.2086 -0.800597,-3.52458 -1.16245,-5.14665 -0.908416,-4.07224 -1.577191,-6.9553 -1.674379,-7.21821 l -0.08174,-0.22108 -1.204911,-0.27398 c -0.662702,-0.15068 -2.349899,-0.53113 -3.749322,-0.84543 -1.399425,-0.31431 -3.663373,-0.83574 -5.030996,-1.15873 -1.367621,-0.323 -3.969858,-0.92036 -5.782748,-1.32747 -1.812895,-0.40713 -3.894686,-0.87834 -4.626204,-1.04713 -0.731519,-0.1688 -2.856432,-0.63524 -4.722031,-1.03655 -1.865598,-0.4013 -3.422603,-0.76025 -3.460012,-0.79766 -0.03742,-0.0374 -0.04632,-0.0863 -0.0198,-0.10874 0.06549,-0.0553 11.077063,-2.57561 14.215931,-3.25376 0.413465,-0.0893 1.402316,-0.31746 2.197445,-0.50696 1.758639,-0.41913 4.945791,-1.13572 7.517573,-1.69019 2.728,-0.588165 4.424053,-0.993135 4.638277,-1.107473 l 0.185559,-0.09906 0.188219,-0.785609 c 0.103522,-0.432088 0.426132,-1.878555 0.716928,-3.214372 0.290772,-1.335811 0.787674,-3.547715 1.104215,-4.915337 0.638886,-2.760382 1.154046,-4.989977 1.496446,-6.476679 0.12453,-0.540689 0.48598,-2.154077 0.80322,-3.58531 0.31724,-1.431225 0.91564,-4.059488 1.3298,-5.840575 0.41417,-1.78109 0.75366,-3.329421 0.75445,-3.440739 l 0.001,-0.202397 h 0.10556 0.10555 l 0.2953,1.243293 c 0.16242,0.68381 0.52921,2.284186 0.81512,3.556392 0.28589,1.272208 0.93505,4.160687 1.44255,6.418852 0.50751,2.258165 1.41614,6.239589 2.01919,8.847612 0.60306,2.608019 1.26395,5.548548 1.46868,6.53451 l 0.37221,1.792652 0.12865,0.13098 0.12865,0.13098 1.44569,0.310101 c 2.72239,0.583963 5.61058,1.235939 8.73195,1.971129 1.71748,0.40453 3.98143,0.9251 5.03099,1.15684 1.73842,0.38381 7.67172,1.72655 11.5655,2.61734 0.85874,0.19645 1.60909,0.40204 1.66744,0.45686 l 0.10613,0.0997 -0.17098,0.0656 c -0.18893,0.0725 -9.04528,2.06503 -11.60669,2.61132 -0.89055,0.18993 -3.44073,0.75963 -5.6671,1.266 -2.22636,0.50636 -5.66131,1.27358 -7.63323,1.70493 l -3.58531,0.78426 -0.25392,1.09588 c -0.13966,0.60273 -0.44325,1.9546 -0.67466,3.00418 -0.23141,1.04957 -0.76039,3.39158 -1.17554,5.20448 -0.41515,1.81288 -1.13618,4.98762 -1.60229,7.05495 -2.39467,10.62108 -2.68495,11.86696 -2.82611,12.12972 l -0.0856,0.15941 z m 0.0363,-19.60842 V 105.7127 l -2.4943,2.48557 c -1.37188,1.36707 -2.648974,2.67774 -2.838002,2.91263 l -0.34369,0.42705 0.580955,2.57999 c 0.319525,1.41898 0.970007,4.30144 1.445507,6.40546 0.47552,2.10402 1.07166,4.78433 1.32476,5.95623 0.25309,1.17191 0.74855,3.37982 1.10102,4.90646 0.35246,1.52665 0.75132,3.25714 0.88637,3.84554 0.13504,0.5884 0.2662,1.06981 0.29146,1.06981 0.0252,0 0.0459,-6.88246 0.0459,-15.29437 z m 7.9802,-10.21753 c 0.66792,-0.1511 1.4746,-0.32884 1.79264,-0.395 1.51557,-0.31523 5.00657,-1.08459 6.30321,-1.3891 0.79513,-0.18674 2.43454,-0.55332 3.64314,-0.81461 1.20859,-0.26131 3.4205,-0.75386 4.91534,-1.09457 2.19639,-0.50061 3.8071,-0.83765 5.87024,-1.22838 0.0473,-0.009 -0.20026,-0.0547 -0.55012,-0.10165 l -0.6361,-0.0854 -14.54362,-0.0164 -14.54362,-0.0164 0.0118,0.0892 c 0.006,0.0491 1.26843,1.30117 2.80463,2.78247 l 2.79309,2.69331 0.46261,-0.0743 c 0.25446,-0.0408 1.00911,-0.19796 1.67701,-0.34905 z m -8.21151,-5.32863 c 0,-0.0545 -1.24458,-1.34277 -2.76573,-2.86293 l -2.765729,-2.763921 -1.137625,0.244761 c -0.625698,0.13462 -2.77704,0.6142 -4.780764,1.06574 -10.614501,2.39195 -13.490122,3.03216 -15.594761,3.47198 -1.09071,0.22794 -2.099843,0.46702 -2.736558,0.64836 l -0.346966,0.0988 3.296167,0.0578 c 1.812895,0.0318 8.591725,0.076 15.064068,0.0981 l 11.767898,0.0402 z m 3.19039,-2.89006 2.76586,-2.850694 -0.0163,-0.127418 c -0.0282,-0.220482 -0.92288,-4.136341 -1.8921,-8.281108 -0.51318,-2.194553 -1.03379,-4.458498 -1.15689,-5.030992 -0.12312,-0.572492 -0.40799,-1.847588 -0.63306,-2.833547 -0.22507,-0.985961 -0.56318,-2.469237 -0.75136,-3.29617 -0.18817,-0.826933 -0.49657,-2.180095 -0.68535,-3.007029 -0.18877,-0.826933 -0.39542,-1.633627 -0.45922,-1.792655 l -0.11605,-0.289135 -0.007,15.179721 -0.007,15.179717 h 0.0966 c 0.0532,0 1.34125,-1.2828 2.86246,-2.85069 z m -76.97829,29.4742 c -0.413469,-0.36096 -2.209015,-1.98524 -3.9901,-3.60953 -1.781086,-1.6243 -3.680719,-3.339 -4.221407,-3.81046 -0.540688,-0.47145 -1.552787,-1.38101 -2.249108,-2.02124 -0.696321,-0.64023 -1.945396,-1.7889 -2.775721,-2.55258 -0.830324,-0.76369 -1.743882,-1.59257 -2.030126,-1.84197 -0.28625,-0.2494 -1.301123,-1.16527 -2.255277,-2.03529 -2.592943,-2.36425 -5.5555535,-5.03985 -6.5913001,-5.95275 -0.5051946,-0.44528 -0.9996487,-0.88765 -1.098792,-0.98307 -0.099137,-0.0954 -1.0246829,-0.94794 -2.0567476,-1.89449 -1.0320706,-0.94656 -1.8764879,-1.75724 -1.8764879,-1.80151 0,-0.13616 1.6661189,-1.68277 4.615258,-4.2842 2.675686,-2.36021 3.5890995,-3.17995 7.3642416,-6.609021 0.885481,-0.804308 2.104389,-1.910968 2.708688,-2.45925 1.596222,-1.448261 8.006197,-7.168191 9.01965,-8.048668 0.475907,-0.413468 1.022226,-0.888343 1.214035,-1.055284 4.461727,-3.883182 8.490381,-7.140566 11.202081,-9.057492 0.264472,-0.186957 1.235511,-0.893393 2.157858,-1.569853 3.430074,-2.515646 7.504567,-5.226322 11.334191,-7.540395 1.809897,-1.093643 5.33709,-3.098395 5.451362,-3.098395 0.108301,0 -0.308114,0.91437 -1.580124,3.46965 -2.184583,4.388503 -4.111637,8.456394 -4.958355,10.466781 -0.294702,0.699712 -0.652451,1.48038 -0.795005,1.734825 l -0.259192,0.462618 -2.601387,1.942035 c -3.086637,2.304293 -5.773251,4.353549 -7.688698,5.864678 -2.165854,1.708677 -7.976575,6.614193 -9.777948,8.254719 -0.288215,0.262482 -1.355131,1.228498 -2.370923,2.146706 -1.015795,0.91821 -2.159169,1.959372 -2.540833,2.313676 -0.38166,0.354316 -1.110077,1.008273 -1.618704,1.453224 -0.508631,0.444946 -1.26328,1.124636 -1.676999,1.510436 -0.413722,0.38579 -1.597949,1.4446 -2.631614,2.35292 l -1.879395,1.65149 v 0.19855 0.19855 l 1.757185,1.55429 c 0.966453,0.85485 2.440129,2.17881 3.274838,2.94213 0.834705,0.76333 2.238294,2.03842 3.119079,2.83355 0.880787,0.79513 1.658077,1.49773 1.727308,1.56135 0.06924,0.0636 0.33403,0.29221 0.588435,0.508 0.254404,0.21579 0.878911,0.76637 1.387794,1.22352 0.508884,0.45716 1.927101,1.72721 3.151602,2.82237 l 2.226354,1.99118 v 0.34093 c 0,0.1875 -0.131722,1.03086 -0.292723,1.8741 -0.617784,3.23573 -0.741406,3.92318 -1.159626,6.44852 -0.237024,1.43124 -0.462601,2.63796 -0.501281,2.6816 l -0.07033,0.0794 z m 53.779586,-6.26885 c 0,-0.0708 0.510933,-0.81524 1.135404,-1.6543 0.624476,-0.83907 1.57063,-2.1241 2.102563,-2.85562 0.531933,-0.73152 1.468015,-2.00662 2.080178,-2.83355 0.612162,-0.82692 1.266384,-1.72017 1.45383,-1.98499 0.982915,-1.3886 2.114968,-2.92882 2.472538,-3.36405 l 0.403834,-0.49154 0.177905,-8.7e-4 c 0.09785,-4.3e-4 0.763712,0.1347 1.479699,0.3006 l 1.301791,0.30163 0.0487,0.24877 c 0.0268,0.13681 0.152888,0.76714 0.280239,1.40075 0.127347,0.63359 0.207169,1.19141 0.177379,1.23962 -0.07613,0.12319 -2.329752,1.82603 -3.875728,2.92853 -1.424562,1.01589 -3.540998,2.57511 -4.42738,3.26173 -0.311855,0.24157 -0.788833,0.59535 -1.059958,0.78618 -0.27112,0.19083 -1.226007,0.90925 -2.12197,1.59648 l -1.629025,1.24951 z m 39.785324,-0.42148 c -0.57118,-0.46871 -7.8217,-5.91044 -8.96327,-6.72719 -1.26787,-0.90713 -3.16213,-2.34639 -3.28842,-2.49857 l -0.14259,-0.17181 0.2488,-1.13313 c 0.13684,-0.62323 0.27024,-1.24221 0.29645,-1.37551 l 0.0476,-0.24237 1.26663,-0.307 c 0.69664,-0.16884 1.36427,-0.30699 1.48362,-0.30699 h 0.21701 l 0.91531,1.2433 c 0.50342,0.68381 1.61489,2.20611 2.46993,3.38291 2.02879,2.79223 3.03181,4.16039 4.58147,6.24937 0.6997,0.94323 1.36623,1.87467 1.48114,2.06986 l 0.20894,0.35489 -0.0933,-0.009 c -0.0513,-0.004 -0.37952,-0.24278 -0.72938,-0.52987 z M 92.940081,97.229595 C 92.389758,96.487319 91.391325,95.124305 90.721341,94.20067 89.429677,92.419992 87.860984,90.292255 85.539372,87.171982 84.7587,86.122747 84.144246,85.24 84.173927,85.210321 c 0.02968,-0.02968 0.356144,0.177424 0.725478,0.460224 1.420578,1.087754 2.546375,1.922118 4.022259,2.981022 0.842263,0.604295 1.890161,1.387835 2.328663,1.741191 0.679077,0.547228 2.426841,1.851082 5.4095,4.035557 l 0.679955,0.497995 -0.07044,0.650331 c -0.03874,0.357679 -0.16257,1.014642 -0.275163,1.459917 l -0.204718,0.809577 -1.42439,0.366523 -1.424391,0.366523 z m 20.495679,0.970597 c -0.57692,-0.141217 -1.10336,-0.290394 -1.16988,-0.331507 l -0.12096,-0.07478 -0.26244,-1.335461 -0.26245,-1.335463 0.21795,-0.24137 c 0.11986,-0.132753 1.18076,-0.948872 2.35756,-1.813598 1.17679,-0.864727 2.42586,-1.796438 2.77572,-2.07047 0.34985,-0.274031 1.46882,-1.108881 2.48659,-1.855218 1.01775,-0.746331 2.62088,-1.948673 3.5625,-2.67186 0.94161,-0.723191 1.74051,-1.286395 1.77534,-1.251566 0.0348,0.03483 -0.0903,0.261936 -0.27806,0.504691 -0.43109,0.557356 -1.73292,2.324625 -2.71061,3.679715 -0.82953,1.149742 -2.61612,3.599349 -5.04,6.910386 l -1.58751,2.168537 -0.34741,-0.01273 c -0.19109,-0.0071 -0.81944,-0.128197 -1.39634,-0.269402 z m 58.60502,-11.285474 c -0.53093,-0.443967 -1.53961,-1.262682 -2.24151,-1.819368 -0.7019,-0.556688 -2.06698,-1.662719 -3.03351,-2.457847 -0.96653,-0.795128 -1.99906,-1.627844 -2.2945,-1.850478 l -0.53719,-0.404792 0.0574,-0.636104 c 0.0316,-0.349854 0.1615,-2.015287 0.28877,-3.700963 0.31692,-4.197654 0.78379,-10.08439 0.92185,-11.623329 0.0627,-0.699712 0.19081,-2.287074 0.28455,-3.527477 0.295,-3.903319 0.69814,-8.992085 0.81087,-10.235468 0.33532,-3.698094 0.60044,-7.395136 0.54275,-7.568214 l -0.0408,-0.122447 -0.25065,0.0542 c -0.13786,0.02981 -1.03133,0.109975 -1.98549,0.178162 -0.95415,0.06818 -3.2181,0.250478 -5.03098,0.405098 -1.81289,0.154622 -4.62332,0.386939 -6.24538,0.516262 -3.72235,0.29677 -4.16998,0.333642 -5.72491,0.471566 -0.69972,0.06206 -2.46925,0.217469 -3.93229,0.345339 -7.76869,0.67899 -13.50017,1.386134 -20.1818,2.490005 -3.31364,0.547447 -5.1905,0.943268 -9.07892,1.914711 l -2.31309,0.577879 -2.71789,0.906645 c -4.64129,1.548267 -7.70382,2.876089 -12.085958,5.240115 -2.963883,1.598924 -6.223829,3.734985 -9.541537,6.252029 -2.145754,1.627923 -2.475826,1.897119 -4.573654,3.730162 -4.545227,3.971532 -9.022731,8.55364 -11.594601,11.865472 -0.287751,0.370545 -0.562405,0.673714 -0.610334,0.673714 h -0.08715 l 0.216012,-0.549361 c 0.118806,-0.302152 0.66751,-1.876505 1.219341,-3.498567 1.249609,-3.6731 1.663999,-4.769524 2.710123,-7.170608 0.457286,-1.049572 0.975667,-2.250823 1.151959,-2.669449 0.661088,-1.569825 2.166487,-4.620793 3.151379,-6.386846 l 1.019353,-1.827858 0.765985,-1.063521 c 1.478384,-2.052634 3.174223,-3.93949 4.934982,-5.490848 1.714492,-1.51059 2.34722,-1.979722 4.47232,-3.31595 l 1.792654,-1.127192 1.966136,-0.963616 c 2.454393,-1.202918 5.039225,-2.246288 7.80671,-3.151187 2.75108,-0.899533 3.2044,-1.02837 6.53452,-1.857183 3.82135,-0.951068 7.95684,-1.752805 11.68116,-2.264591 0.6997,-0.09615 1.45435,-0.201949 1.677,-0.235101 0.37016,-0.05512 4.36664,-0.578986 5.32012,-0.697375 2.61808,-0.325065 12.12459,-1.192934 17.75305,-1.620706 1.2722,-0.0967 2.57333,-0.199226 2.89137,-0.227854 0.31805,-0.02864 0.99463,-0.0824 1.50351,-0.119505 0.50889,-0.03712 1.18548,-0.09108 1.50353,-0.11998 0.60718,-0.05515 5.74041,-0.466497 7.22843,-0.579235 0.47708,-0.03615 1.12765,-0.08712 1.44569,-0.113265 1.39878,-0.115012 3.53948,-0.282704 4.33707,-0.339758 0.47707,-0.03414 2.27262,-0.164397 3.99009,-0.289489 5.16392,-0.376119 8.57282,-0.608144 9.2524,-0.629759 l 0.34697,-0.01109 -8.7e-4,0.693928 c -3.9e-4,0.38166 -0.0377,1.162333 -0.0831,1.734826 -0.34788,4.399925 -0.60207,7.494578 -0.89779,10.929399 -0.36869,4.282614 -0.61888,7.382473 -0.81213,10.061988 -0.0665,0.922348 -0.14692,1.937221 -0.17867,2.255275 -0.0317,0.318049 -0.18539,2.19166 -0.34141,4.163576 -0.15602,1.971922 -0.33425,4.131778 -0.39608,4.799686 -0.0618,0.667909 -0.14281,1.630737 -0.17995,2.139618 -0.0372,0.508882 -0.0927,1.159441 -0.1236,1.44569 -0.0308,0.286245 -0.28977,3.565066 -0.57544,7.286263 -0.65863,8.579364 -0.77644,9.946845 -0.85668,9.944135 -0.0358,-0.0013 -0.49951,-0.365446 -1.03045,-0.809409 z M 149.0985,86.572277 c -1.87354,-0.395048 -3.15137,-0.938359 -4.67129,-1.98613 l -0.82169,-0.566444 -0.79748,-0.837214 c -0.82947,-0.870816 -1.82585,-2.016488 -3.65406,-4.20158 -1.42105,-1.698471 -3.48281,-3.912219 -4.79247,-5.145797 -1.47043,-1.385006 -3.93312,-3.339871 -5.27732,-4.189097 -2.23409,-1.411439 -2.52922,-1.586221 -3.99477,-2.365796 -4.0214,-2.139115 -8.76263,-3.697527 -13.2648,-4.360046 -1.84694,-0.271784 -3.15999,-0.421814 -4.62621,-0.528584 l -1.73482,-0.126333 -1.73484,0.07073 c -3.66295,0.149369 -6.633681,0.599546 -10.06198,1.524776 -1.70098,0.459054 -1.941238,0.536487 -3.677284,1.185088 -1.572951,0.587671 -2.869986,1.172176 -3.914479,1.764051 -0.448399,0.25409 -0.834736,0.442516 -0.858528,0.418723 -0.05939,-0.05939 1.86218,-1.716327 3.13016,-2.699079 6.798077,-5.268878 13.815141,-8.991213 21.779621,-11.553399 1.52358,-0.490144 3.89264,-1.148187 4.78889,-1.330195 l 0.43048,-0.08741 0.84174,0.148513 c 3.47763,0.613587 6.65422,1.511259 9.68933,2.738111 1.40526,0.568038 1.7164,0.704831 3.84511,1.690562 2.92452,1.354242 7.45225,4.390417 10.31853,6.919329 1.46246,1.290313 1.83735,1.600302 1.78499,1.475972 -0.0253,-0.06019 -0.35833,-0.543168 -0.73999,-1.073308 -0.38167,-0.530141 -1.00621,-1.415123 -1.38787,-1.966627 -3.17001,-4.580682 -5.40402,-7.819135 -5.78786,-8.390173 -0.25163,-0.374355 -0.96274,-1.388839 -1.58024,-2.254406 l -1.12272,-1.573754 0.0819,-0.07501 c 0.045,-0.04127 1.61714,-0.214697 3.49365,-0.385428 1.8765,-0.170731 3.56796,-0.329826 3.7588,-0.353548 0.19082,-0.02374 0.91944,-0.0999 1.61917,-0.169288 0.69971,-0.06938 1.44941,-0.145527 1.66601,-0.169202 l 0.3938,-0.04306 0.21233,0.249928 c 0.31327,0.368739 2.89804,4.100916 3.85765,5.57006 2.55476,3.911369 4.14498,6.651566 7.21524,12.432916 0.98787,1.860157 3.45128,7.025935 4.02008,8.43006 0.98444,2.430207 1.7663,4.534199 1.99296,5.363091 l 0.24546,0.897615 v 0.781096 0.781093 l -0.24209,0.451673 c -0.59901,1.117628 -1.4545,1.814977 -3.29771,2.688109 l -1.11147,0.526513 -1.34641,0.27463 -1.34642,0.274626 -1.15655,-0.007 -1.15655,-0.007 z M 34.695516,72.247255 c -0.02977,-0.105698 -0.08696,-0.686609 -0.127115,-1.290906 -0.04017,-0.6043 -0.09276,-1.306902 -0.116887,-1.561346 -0.02414,-0.254439 -0.07531,-0.878977 -0.113761,-1.38786 -0.03842,-0.50888 -0.121079,-1.523753 -0.183652,-2.255272 -0.06258,-0.731518 -0.13921,-1.642299 -0.170307,-2.023962 -0.123164,-1.511768 -0.749183,-9.059508 -0.800981,-9.657197 -0.03033,-0.349853 -0.08419,-0.974392 -0.119732,-1.38786 -0.03553,-0.413465 -0.08816,-0.933915 -0.116934,-1.156549 -0.02877,-0.222635 -0.105806,-1.133421 -0.171134,-2.023964 -0.06534,-0.890543 -0.144005,-1.879395 -0.174814,-2.197445 -0.09385,-0.968599 -0.516441,-5.913867 -0.929053,-10.87157 -0.03177,-0.381665 -0.07995,-0.928131 -0.107077,-1.21438 -0.02715,-0.286245 -0.08528,-1.079926 -0.129222,-1.763737 l -0.07989,-1.243292 h 0.34595 c 0.190276,0 1.017083,0.05112 1.837354,0.113585 3.240775,0.246816 3.279502,0.249862 5.076702,0.399541 0.445273,0.03707 1.147875,0.09249 1.56134,0.123107 1.878612,0.13914 3.933804,0.294768 4.568377,0.345938 0.38166,0.03077 1.032218,0.08029 1.445688,0.110034 1.084585,0.07803 5.054605,0.404512 5.667095,0.466041 0.286243,0.02877 3.617108,0.289096 7.40192,0.57853 9.023445,0.690044 12.567733,0.975848 13.097931,1.056181 l 0.433708,0.06571 v 0.09727 c 0,0.0535 -0.606773,0.946696 -1.348385,1.984886 -0.741615,1.038189 -2.126184,3.05862 -3.076822,4.489852 -0.950639,1.431232 -1.791288,2.668617 -1.868113,2.749752 l -0.139681,0.147511 -1.091651,-0.112842 c -0.600408,-0.06207 -1.429937,-0.140871 -1.843406,-0.175124 -0.413464,-0.03427 -1.298228,-0.112535 -1.966137,-0.173961 -0.667904,-0.06143 -1.682777,-0.142361 -2.25527,-0.179863 -0.572494,-0.03751 -1.639411,-0.11835 -2.37093,-0.179665 -0.731519,-0.06132 -1.642299,-0.135224 -2.023964,-0.164244 -0.381659,-0.02903 -1.084262,-0.08236 -1.56134,-0.11853 -0.47708,-0.03615 -2.090463,-0.165191 -3.585305,-0.286708 -1.494841,-0.121519 -3.186296,-0.254185 -3.758789,-0.294813 -0.572494,-0.04061 -1.509296,-0.120758 -2.08179,-0.178064 -0.572494,-0.0573 -1.188905,-0.105106 -1.369799,-0.106205 l -0.328908,-0.0023 0.06498,0.549361 c 0.107681,0.910271 0.07967,0.579969 1.271052,14.991733 l 0.601138,7.271763 -1.201245,0.805948 c -0.660686,0.44327 -2.022381,1.412627 -3.025994,2.154121 -1.003609,0.741497 -2.557414,1.877038 -3.452896,2.523427 l -1.628148,1.175293 z"
       id="path2"
       sodipodi:nodetypes="csssssssssscscccccsssssscsssssssssscssssssssssssssssscsssccsssssssccsssssssssssssssssssssssssssssssssscccsssssssscccsssscssssssssscssssssssscccssscssssccscsscsssscccsssscsssscccssssssscccsccssssscssssscsscscsssssssscssssscccccccccccccsssssssssssssscccsccsscccccsscsscccccsssssccsssssssscscccssscsssssssssssscsssscssscsscsssscccssssssssssssscccsssssscsssssssscssscssssssccccssssscccsssscccssscsssssccccsscssssssccccsssccccccsccccsscssssccccsccssssssccccsccssssssssssssssscssssssscsssssssscccssscssscsssscsssssssccscssssssscscsscsscsscssssccccsssssssscsscccscscccsssssscsscccccssscsssssscsssssssscsssssscssssscssscssssssssssssssccccsssssscsccccscssssssscsssssssscssssssssscssssscssssscccsscccccccsscsssssssscscsscsssssscsssscsssssscscsccsscssccc" /></g></svg>
