<svg xmlns="http://www.w3.org/2000/svg" viewBox="0 0 512 512"><circle cx="256" cy="256" r="240" fill="#1a1a1a"/><path fill="#e8845c" d="M254 445.79a274 274 0 0 0-3.49-3.77 711 711 0 0 1-9.94-10.77c-.82-.87-2.52-2.73-3.78-4.12l-3.91-4.23-3.94-4.23-5.07-5.47A1694 1694 0 0 1 209 396.93c-.65-.7-1.93-2.12-2.84-3.16l-1.65-1.9.6-.12c.33-.07 1.88-.14 3.45-.17s3.28-.1 3.8-.14c.94-.1 6.4-.4 11.62-.64 1.45-.07 2.93-.16 3.3-.2l.65-.1.72.9c.39.49 2.23 2.58 4.1 4.65l4.72 5.28a6251.1 6251.1 0 0 1 17.79 19.65l.56.62 1.35-1.46c.73-.8 2.2-2.36 3.24-3.46a1318 1318 0 0 0 20.7-22.41c.58-.65 2.23-2.46 3.67-4.01 9-9.72 11.2-12.14 15.11-16.63a288 288 0 0 0 12.26-15.14l1.48-2.08 5.5-5.5c3.01-3.03 6.48-6.64 7.7-8.02l3.23-3.63a41 41 0 0 0 1.9-2.26l3-3.76c2.95-3.65 4.74-6.06 8.38-11.32 3.7-5.33 9.04-14.18 11.24-18.58.76-1.53 1.48-3 1.58-3.27s.44-1.04.74-1.7a5 5 0 0 0 .45-1.22c-.08 0-5 6.78-7.04 9.71a632 632 0 0 1-14.2 18.8c-3.81 4.72-4.64 5.7-7.91 9.38-10.27 11.55-21.74 21.79-32.31 28.84a124 124 0 0 1-17.38 9.64 125 125 0 0 1-27.21 8.61 234 234 0 0 1-19.5 2.55c-4.98.5-5.09.52-10.3.84-6.88.43-20.98.97-33.63 1.28-4.37.11-6.88.2-12.36.42l-5.49.22c-1.63.06-5.62.25-8.87.41-3.25.17-7.39.35-9.19.42s-3.98.16-4.85.22-3.15.15-5.07.21c-1.92.07-4.1.16-4.86.22-.75.05-3.65.19-6.44.31a743 743 0 0 0-12.3.63h-.26l.1-.9.52-4.27a290 290 0 0 0 .96-8.87 67154.19 67154.19 0 0 1 1.38-14.68c.24-2.5.6-6.35.83-8.55s.65-6.58.95-9.72a624 624 0 0 1 3.82-32.63c.19-1.33.67-4.42 1.07-6.86a303 303 0 0 1 8.75-38.86 601 601 0 0 1 8.8-25.97l4.34-11.1c1.95-4.95 3.67-9.16 4.48-10.97.29-.64 1.14-2.64 1.88-4.44a397 397 0 0 1 5.5-12.63c.17-.31.88-1.8 1.57-3.31a501 501 0 0 1 11.39-23.02 418 418 0 0 1 15.25-25.98 380 380 0 0 1 18.78-26.71l3.33-4.33a522 522 0 0 1 9.97-12.37l4.75-5.79c.48-.58 2-2.38 3.4-4.01l2.98-3.5a230 230 0 0 1 3.46-4c.07-.06 1.58-1.82 3.37-3.91 1.8-2.1 3.31-3.85 3.38-3.9a574.07 574.07 0 0 1 6.43-7.5c1.52-1.76 3.5-4.07 4.4-5.14l1.65-1.94h.56l1.56 1.95c.85 1.08 2.5 3.05 3.67 4.39s2.4 2.76 2.73 3.16 1.1 1.31 1.72 2.01c4.25 4.85 16.59 19.26 20.15 23.53 3.2 3.86 8.1 9.72 10.04 12.04.93 1.11 2.35 2.88 3.17 3.92.8 1.05 2.02 2.56 2.7 3.36l1.2 1.45-.23.29-.24.29h-.85c-.47 0-2.2.14-3.83.32a1292 1292 0 0 0-14.14 1.59l-2.09.23-.16-.17-.98-1.25c-.44-.6-1.95-2.4-3.35-4.03l-4.64-5.46c-1.16-1.38-2.46-2.9-2.87-3.36a323 323 0 0 1-3.41-4.03 1023 1023 0 0 0-8.39-9.92 29 29 0 0 0-1.8-2l-.37-.31-.56.63-5.85 6.73c-6.45 7.39-14.99 18.18-21.98 27.78a415 415 0 0 0-13.06 19.64c-6.23 10.3-13.54 24.22-16.7 31.85-1.49 3.57-5 12.44-6.1 15.36a550 550 0 0 0-7.4 22.38c-2.53 8.83-4.8 18.9-5.93 26.3l-.56 3.69-.1 5.7-.1 5.7.45 3.6c1.65 12.96 5.26 23.4 11.66 33.72a72 72 0 0 0 8.07 10.91l1.9 2.19 3.06 2.83a79 79 0 0 0 16.5 11.9 90 90 0 0 0 12.67 5.53 91 91 0 0 0 16.69 3.8l2.21.26 5.92.01c6.52.01 8.2-.09 12.5-.75l2.91-.44 3.7-.93a81 81 0 0 0 18.8-7.1l3.27-1.7 2.85-1.9a68 68 0 0 0 7.23-5.4c1.5-1.43 1.16-.86-2.8 4.57-1.93 2.63-2.7 3.6-6 7.56l-2.1 2.51-4.03 4.02-4.02 4.03-2.64 2.21c-2.9 2.44-8.3 6.37-10.77 7.84a104 104 0 0 1-19.43 8.69 76 76 0 0 1-8.18 2.1l-1.66.3-1.15-.08c-3.91-.28-10.17-1.3-14.67-2.38a96 96 0 0 1-17.07-6.21c-7.34-3.52-12.97-7.14-20.59-13.23l-3.3-2.64-3.82-3.8-3.82-3.8-2.25-2.72a128 128 0 0 1-9.88-13.98q-1.57-2.67-1.06-1.31c.6 1.55 3.6 7.5 5.18 10.3 4.71 8.28 8.7 14.54 15.41 24.18a404 404 0 0 0 13.26 17.7 25 25 0 0 1 2.07 2.7v.19l-2.9.02-3.33.06c-.23.02-3.18.11-6.55.2-3.37.08-6.74.2-7.5.25l-1.37.1-1.9-2.66c-6.03-8.47-11.94-17.64-15.16-23.53a218 218 0 0 1-6.27-12.35c-3.89-8.5-5.81-13.57-7.95-20.9-1.44-4.96-2.73-10.16-2.94-11.84l-.16-1.26-.17.42c-.33.82-2.43 12.06-3.15 16.9-1.54 10.34-4.49 37.03-5.7 51.63-.36 4.36-.73 8.49-.83 9.19s-.13 1.34-.08 1.42l.1.16.99-.1c.54-.05 2.7-.15 4.79-.21 2.09-.07 4.65-.17 5.7-.23a1303 1303 0 0 1 25.98-1.04c6.33-.22 9.67-.32 14.14-.43 13.6-.35 32.6-1.7 41.82-2.98 5.07-.7 10.43-1.73 15.42-2.94 7.95-1.94 19.6-6.6 26.57-10.63 1.02-.6 1.9-1.08 1.95-1.08.09 0 2.17-1.32 4.84-3.06 1.68-1.1 4.15-2.98 7.94-6.04 1.1-.88 3.4-2.98 5.14-4.65l3.15-3.04 3.55-3.98c3.88-4.37 7.52-8.93 10.16-12.77a195 195 0 0 0 8.15-13.13c2.1-4 4.64-7.4 7.53-10.1a25 25 0 0 1 12.75-6.5l1.82-.32 2.54-.01 2.53-.02 2.32.56 2.33.56 1.9.93 1.92.93 1.5 1.4 1.52 1.4.58 1.19.59 1.19.08 1.93.08 1.93-.34 2.22a162 162 0 0 1-2.65 11.7 166 166 0 0 1-6.06 16.86 246 246 0 0 1-8.3 16.75c-1.8 3.23-5.03 8.49-6.97 11.35a225 225 0 0 1-12.67 17.32 333 333 0 0 1-13.42 15.38c-1.4 1.5-3 3.26-3.56 3.91a330 330 0 0 1-7.23 7.85c-1.73 1.82-8.03 8.65-10.31 11.18l-7.08 7.62a1833 1833 0 0 0-9.94 10.66 2237 2237 0 0 0-13.64 14.64l-.83.91zm135.56-56.15c-1.22-.09-3.6-.22-5.28-.29a198 198 0 0 1-4.44-.23c-.75-.06-3.5-.2-6.12-.31-10.35-.45-19.83-.92-28.09-1.38-6-.33-9.98-.53-13.2-.64-1.97-.07-4.68-.21-6.02-.32-1.33-.1-3.1-.2-3.94-.2h-1.52l-.11-.18-.11-.18 1.84-2.09c3.37-3.83 5.9-6.99 10.15-12.72l1.61-2.18 2.64.13c10.58.51 14.04.7 20.28 1.06l4.43.22c1.45.06 3.3.16 4.12.2.81.06 2.88.17 4.6.24l3.12.14-.1-1.03c-.07-.57-.26-2.46-.44-4.2l-.42-4.01-.63-6.55-2.56-27.05-.13-1.28 1.13-1.01c.62-.56 2.27-1.93 3.67-3.04 1.39-1.12 3.77-3.08 5.28-4.37 4.58-3.9 6.46-5.43 6.57-5.32.1.1 1.6 14.85 3.14 30.88.71 7.4 1.9 19.38 2.44 24.6.45 4.4 1.07 10.73 1.58 16.05.17 1.8.37 3.73.45 4.28l.13 1-.93-.03c-.5-.02-1.92-.1-3.14-.19m-30.62-62.18c0-.06.86-2.13 1.92-4.6 3.02-7.09 3.67-8.72 4.72-11.98a217 217 0 0 0 3.61-12.6c.28-1.18.62-2.37.75-2.64.12-.27.82-1 1.53-1.61l3.2-2.8c1.05-.93 2.61-2.28 3.48-3 .88-.71 2.73-2.3 4.12-3.53s2.87-2.5 3.28-2.84 1.54-1.34 2.53-2.24l6.23-5.6a756 756 0 0 0 8.97-8.13l3.39-3.06c4.9-4.47 7.9-7.17 9.18-8.27.81-.7 1.6-1.42 1.75-1.6l.27-.33-3.19-2.82-5.57-4.93-11.96-10.64c-5.28-4.69-9.82-8.74-10.1-9.01l-.5-.48.25-2.92c.3-3.54.59-7.26 1.15-15.33.15-2.06.33-3.8.4-3.88l.14-.14 2.38 2.12 10.41 9.25a973 973 0 0 1 13.96 12.44c3.08 2.83 6.75 6.1 9.69 8.66 1.07.93 3.41 3.02 5.21 4.65s5.76 5.17 8.8 7.88l5.53 4.91v.55l-2.17 1.88c-1.19 1.04-3.16 2.79-4.38 3.9s-3.5 3.15-5.07 4.53-3.99 3.58-5.38 4.86c-1.4 1.29-4.58 4.18-7.08 6.44-2.5 2.25-5.25 4.77-6.12 5.59s-2.44 2.24-3.49 3.15c-1.04.92-2.62 2.35-3.5 3.17-.89.83-2.69 2.45-4 3.61a427 427 0 0 0-5.17 4.65c-3.06 2.8-3.3 3.02-7.05 6.34-5.13 4.55-7.85 6.84-23.36 19.66-3.88 3.2-8.48 6.84-8.65 6.84a.1.1 0 0 1-.11-.1M255.8 316.64c-.13-.2-1.07-4.06-2.23-9.14l-3-13.1c-.34-1.56-1.04-4.65-1.55-6.86l-2.12-9.4a400 400 0 0 0-3.06-13.18l-.15-.4-2.2-.5-6.85-1.55c-2.55-.57-6.69-1.52-9.18-2.11-2.5-.6-7.25-1.68-10.56-2.43l-8.45-1.9c-1.34-.32-5.22-1.17-8.62-1.9s-6.25-1.39-6.32-1.46q-.1-.12-.04-.2c.12-.1 20.23-4.7 25.96-5.94l4.01-.92a775 775 0 0 1 13.73-3.09c4.98-1.07 8.08-1.81 8.47-2.02l.34-.18.34-1.44c.2-.79.78-3.43 1.31-5.87s1.44-6.47 2.02-8.97l2.73-11.83 1.47-6.54c.58-2.62 1.67-7.42 2.43-10.67.75-3.25 1.37-6.08 1.37-6.28v-.37h.4l.53 2.27 1.49 6.5 2.63 11.71c.93 4.13 2.59 11.4 3.69 16.16s2.3 10.13 2.68 11.93l.68 3.27.24.24.23.24 2.64.57a817 817 0 0 1 15.95 3.6c3.13.74 7.27 1.69 9.18 2.11 3.18.7 14.01 3.15 21.12 4.78 1.57.36 2.94.73 3.05.83l.19.19-.31.12c-.35.13-16.52 3.77-21.2 4.76-1.62.35-6.28 1.4-10.34 2.32-4.07.92-10.34 2.32-13.94 3.1l-6.55 1.44-.46 2c-.26 1.1-.81 3.57-1.24 5.49-.42 1.91-1.38 6.2-2.14 9.5l-2.93 12.88c-4.37 19.4-4.9 21.67-5.16 22.15l-.15.3zm.07-35.8V252.9l-4.56 4.54c-2.5 2.5-4.83 4.89-5.18 5.32l-.63.78 1.06 4.7 2.64 11.7c.87 3.85 1.96 8.74 2.42 10.88.47 2.14 1.37 6.17 2.01 8.96l1.62 7.02c.25 1.08.49 1.95.53 1.95s.09-12.56.09-27.92m14.57-18.66c1.22-.28 2.7-.6 3.27-.72 2.77-.58 9.15-1.98 11.51-2.54 1.45-.34 4.45-1 6.66-1.49 2.2-.47 6.24-1.37 8.97-2a273 273 0 0 1 10.72-2.24c.09-.01-.37-.1-1-.18l-1.17-.16-26.55-.03-26.56-.03.02.16c.01.1 2.32 2.38 5.12 5.08l5.1 4.92.85-.13c.46-.08 1.84-.36 3.06-.64m-15-9.73c0-.1-2.27-2.45-5.04-5.23l-5.05-5.05-2.08.45c-1.14.25-5.07 1.12-8.73 1.95a2303 2303 0 0 1-28.48 6.34 80 80 0 0 0-5 1.18l-.63.18 6.02.1c3.31.07 15.69.15 27.5.19l21.5.07zm5.83-5.28 5.05-5.2-.03-.24c-.05-.4-1.68-7.55-3.45-15.12a917 917 0 0 1-3.27-14.36l-2.62-11.5a43 43 0 0 0-.84-3.28l-.22-.53v27.72l-.02 27.72h.18c.1 0 2.44-2.34 5.22-5.2zM120.72 301c-.76-.66-4.03-3.62-7.29-6.59s-6.72-6.1-7.7-6.96c-1-.86-2.84-2.52-4.11-3.69l-5.07-4.66c-1.52-1.4-3.18-2.9-3.7-3.36-.53-.46-2.38-2.13-4.13-3.72a1391 1391 0 0 0-14.04-12.66l-3.75-3.46a55 55 0 0 1-3.43-3.3c0-.24 3.04-3.06 8.43-7.81 4.88-4.31 6.55-5.81 13.44-12.07l4.95-4.5a2490 2490 0 0 1 18.69-16.62c8.14-7.09 15.5-13.04 20.45-16.54.49-.34 2.26-1.63 3.94-2.86 6.27-4.6 13.7-9.55 20.7-13.77 3.3-2 9.74-5.66 9.95-5.66s-.56 1.67-2.88 6.34a414 414 0 0 0-9.06 19.1 45 45 0 0 1-1.45 3.18l-.47.84-4.75 3.55a706 706 0 0 0-14.04 10.7 544 544 0 0 0-17.86 15.08l-4.32 3.92-4.64 4.22c-.7.65-2.03 1.84-2.96 2.66-.93.81-2.3 2.05-3.06 2.76-.76.7-2.92 2.63-4.8 4.3l-3.44 3v.73l3.2 2.84c1.77 1.56 4.46 3.98 5.99 5.37a1451 1451 0 0 0 9.92 8.96c.47.39 1.6 1.4 2.54 2.23l5.75 5.15 4.07 3.64v.62c0 .34-.24 1.88-.54 3.42-1.13 5.91-1.35 7.17-2.11 11.78a64 64 0 0 1-.92 4.9l-.13.14zm98.2-11.44c0-.13.93-1.5 2.07-3.03l3.84-5.21 3.8-5.17c1.12-1.51 2.31-3.14 2.66-3.63a167 167 0 0 1 4.51-6.14l.74-.9h.32c.18 0 1.4.25 2.7.55l2.38.55.1.45.5 2.56c.24 1.16.38 2.18.33 2.26-.14.23-4.26 3.34-7.08 5.35-2.6 1.86-6.47 4.7-8.08 5.96a64 64 0 0 1-1.94 1.43c-.5.35-2.24 1.66-3.87 2.92l-2.98 2.28zm72.65-.77c-1.04-.86-14.28-10.8-16.37-12.29a109 109 0 0 1-6-4.56l-.26-.31.45-2.07c.25-1.14.5-2.27.54-2.52l.09-.44 2.31-.56c1.27-.3 2.5-.56 2.71-.56h.4l1.67 2.27c.92 1.25 2.95 4.03 4.5 6.18 3.71 5.1 5.54 7.6 8.37 11.41a90 90 0 0 1 2.7 3.78l.4.65-.18-.02c-.1 0-.7-.44-1.33-.97zm-56.76-51.36-4.06-5.53c-2.35-3.25-5.22-7.14-9.46-12.84a35 35 0 0 1-2.5-3.58c.06-.05.66.33 1.33.84 2.6 1.99 4.65 3.51 7.35 5.45 1.54 1.1 3.45 2.53 4.25 3.18 1.24 1 4.43 3.38 9.88 7.36l1.24.91-.13 1.2c-.07.64-.3 1.84-.5 2.66l-.38 1.48-2.6.66-2.6.67zm37.42 1.77a19 19 0 0 1-2.14-.6l-.22-.14-.48-2.44-.48-2.44.4-.44c.22-.24 2.16-1.73 4.3-3.31a332 332 0 0 0 5.08-3.78c.63-.5 2.68-2.03 4.54-3.39a444 444 0 0 0 6.5-4.88c1.72-1.32 3.18-2.35 3.24-2.28.07.06-.16.48-.5.92a375 375 0 0 0-4.95 6.72l-9.2 12.62-2.9 3.96-.64-.03c-.35-.01-1.5-.23-2.55-.49m107.01-20.6c-.97-.82-2.8-2.31-4.09-3.33a495 495 0 0 1-5.54-4.49 206 206 0 0 0-4.19-3.37l-.98-.74.1-1.17c.06-.63.3-3.68.53-6.75.58-7.67 1.43-18.42 1.69-21.23l.52-6.44c.53-7.13 1.27-16.42 1.48-18.69.6-6.75 1.1-13.5.99-13.82l-.08-.22-.46.1c-.25.05-1.88.2-3.62.32-1.74.13-5.88.46-9.19.74l-11.4.94c-6.8.55-7.62.61-10.46.87-1.27.1-4.5.4-7.18.63a453 453 0 0 0-36.85 4.54c-6.05 1-9.48 1.73-16.58 3.5l-4.22 1.05-4.96 1.66a124 124 0 0 0-22.07 9.57 138 138 0 0 0-17.42 11.41 112 112 0 0 0-8.36 6.82c-8.3 7.25-16.47 15.61-21.17 21.66a6 6 0 0 1-1.11 1.23h-.16l.4-1c.21-.55 1.21-3.43 2.22-6.39 2.28-6.7 3.04-8.7 4.95-13.1.83-1.9 1.78-4.1 2.1-4.87 1.21-2.86 3.96-8.43 5.76-11.66l1.86-3.34 1.4-1.94c2.7-3.75 5.8-7.2 9-10.03a49 49 0 0 1 8.17-6.05l3.28-2.06 3.59-1.76c4.48-2.2 9.2-4.1 14.25-5.75 5.03-1.64 5.85-1.88 11.94-3.4a209 209 0 0 1 24.39-4.56c.67-.1 7.97-1.05 9.71-1.27a1111 1111 0 0 1 37.7-3.38c.58-.05 1.81-.15 2.74-.21l2.75-.22a2450 2450 0 0 1 15.84-1.27 1052 1052 0 0 1 15.2-1.15c9.43-.68 15.66-1.1 16.9-1.15l.63-.02v1.27c0 .7-.07 2.12-.15 3.17-.64 8.03-1.1 13.68-1.64 19.95-.67 7.82-1.13 13.48-1.48 18.38-.13 1.68-.27 3.53-.33 4.12-.06.58-.34 4-.62 7.6a1012 1012 0 0 1-1.06 12.67 1739.45 1739.45 0 0 0-1.28 15.94c-1.2 15.67-1.4 18.17-1.56 18.16-.06 0-.9-.67-1.88-1.48m-41.89-.63a21.5 21.5 0 0 1-8.53-3.63l-1.5-1.03-1.46-1.53a165 165 0 0 1-6.67-7.67c-2.6-3.1-6.36-7.15-8.75-9.4a81 81 0 0 0-9.64-7.65 84 84 0 0 0-7.29-4.32c-7.34-3.9-16-6.75-24.22-7.96-3.37-.5-5.77-.77-8.45-.96l-3.17-.24-3.16.13a79 79 0 0 0-18.38 2.79c-3.1.84-3.54.98-6.71 2.16a51 51 0 0 0-7.15 3.22 7 7 0 0 1-1.57.77c-.1-.11 3.4-3.14 5.72-4.93a127 127 0 0 1 39.77-21.1c2.78-.9 7.1-2.1 8.74-2.43l.79-.16 1.53.28a87 87 0 0 1 17.7 5 115 115 0 0 1 7.02 3.08c5.34 2.47 13.6 8.02 18.84 12.64 2.67 2.35 3.36 2.92 3.26 2.7-.05-.12-.65-1-1.35-1.97s-1.84-2.58-2.54-3.59a3318 3318 0 0 1-10.56-15.32c-.46-.68-1.76-2.54-2.89-4.12l-2.05-2.87.15-.14c.08-.07 2.95-.39 6.38-.7a670 670 0 0 0 12.86-1.26l.72-.08.39.45c.57.68 5.29 7.5 7.04 10.17 4.67 7.15 7.57 12.15 13.18 22.7 1.8 3.4 6.3 12.84 7.34 15.4a124 124 0 0 1 3.64 9.8l.45 1.63v2.85l-.45.83c-1.1 2.04-2.65 3.31-6.02 4.9l-2.03.97-2.46.5-2.46.5-2.1-.01-2.12-.01zm-208.9-26.16a24 24 0 0 1-.23-2.36c-.07-1.1-.17-2.38-.21-2.85a516.27 516.27 0 0 0-.85-10.35l-1.69-20.16-.21-2.11c-.06-.41-.2-2.07-.32-3.7s-.26-3.43-.32-4.01a3037 3037 0 0 1-2.12-25.3l-.15-2.26h.63c.35 0 1.86.09 3.36.2a918 918 0 0 1 12.12.96 1970 1970 0 0 1 21.33 1.68c.52.05 6.6.53 13.51 1.06 16.48 1.26 22.95 1.78 23.92 1.93l.8.12v.17c0 .1-1.11 1.73-2.47 3.63-1.35 1.9-3.88 5.58-5.62 8.2a163 163 0 0 1-3.4 5.02l-.26.27-2-.2c-1.1-.12-2.6-.27-3.36-.33s-2.37-.2-3.6-.32c-1.21-.1-3.07-.26-4.11-.32l-4.33-.33-6.55-.52-6.54-.52c-2.73-.22-5.82-.47-6.87-.54s-2.75-.22-3.8-.33c-1.04-.1-2.17-.19-2.5-.19h-.6l.12 1c.2 1.66.14 1.06 2.32 27.37l1.1 13.28-2.2 1.47c-1.2.81-3.69 2.58-5.52 3.94l-6.3 4.6-2.98 2.15z"/></svg>